<?xml version="1.0" standalone="no"?><!DOCTYPE svg PUBLIC "-//W3C//DTD SVG 1.1//EN" "http://www.w3.org/Graphics/SVG/1.1/DTD/svg11.dtd"><svg t="1550634561049" class="icon" style="" viewBox="0 0 1024 1024" version="1.1" xmlns="http://www.w3.org/2000/svg" p-id="5116" xmlns:xlink="http://www.w3.org/1999/xlink" width="16" height="16"><defs><style type="text/css"></style></defs><path d="M128.303641 1023.872016C57.592657 1023.872016 0 964.935531 0 892.496767V146.543876C0 74.105112 57.592657 15.168626 128.303641 15.168626H425.545743c23.868957 0 43.130501 19.837471 43.130501 44.282354 0 24.3169-19.45352 44.15437-43.130501 44.282354H134.51085a48.633799 48.633799 0 0 0-47.929889 49.081742v733.538474c0 27.068549 21.437267 49.081742 47.929889 49.081742h754.847757a48.633799 48.633799 0 0 0 47.929889-49.081742V605.237392c0.191976-24.188916 19.581503-44.026387 43.322476-44.026386s43.130501 19.709487 43.258485 44.026386v287.323367C1023.869457 964.935531 966.2768 1023.872016 895.565815 1023.872016H128.303641z" fill="#00bbbb" p-id="5117"></path><path d="M301.273588 770.208358a38.075145 38.075145 0 0 1-27.068549-11.198572 40.826795 40.826795 0 0 1-9.918736-38.139137l56.312821-210.533157a9.470792 9.470792 0 0 1 2.11173-3.967494c0.127984-0.575927 0.383951-1.791772 1.471813-2.751649L791.45109 26.623166A90.228496 90.228496 0 0 1 856.402809 0.00256c28.284394 0 56.504796 12.286433 77.430127 33.595716l51.705408 52.921253c20.925332 21.309283 32.955798 50.04162 32.955798 78.837948 0 25.532745-9.214825 49.081742-26.108671 66.295547l-467.524391 476.8672a12.350425 12.350425 0 0 1-8.830874 3.711526c-0.383951 0-0.639918 0-0.959877-0.127983l-203.878006 56.696771a33.211765 33.211765 0 0 1-9.918735 1.40782z m67.127441-98.163484l80.885687-22.525128-68.023327-69.431147-22.077185 82.677458a7.487045 7.487045 0 0 0 9.214825 9.278817z m157.547913-83.509352l295.514321-301.529555-83.573344-86.644953-294.04251 300.121734a23.676981 23.676981 0 0 0 0 32.827815l54.265082 55.224959a19.45352 19.45352 0 0 0 27.836451 0z m356.050603-363.281682l51.961375-53.049236a17.917715 17.917715 0 0 0 4.927372-12.86236 25.72472 25.72472 0 0 0-7.487046-17.661748l-51.833391-52.921253a24.636859 24.636859 0 0 0-17.405781-7.359062 17.277797 17.277797 0 0 0-12.606392 4.799389l-51.321457 52.345326 83.76532 86.708944z" fill="#00bbbb" p-id="5118"></path></svg>