<?xml version="1.0" standalone="no"?><!DOCTYPE svg PUBLIC "-//W3C//DTD SVG 1.1//EN" "http://www.w3.org/Graphics/SVG/1.1/DTD/svg11.dtd"><svg t="1550625195587" class="icon" style="" viewBox="0 0 1027 1024" version="1.1" xmlns="http://www.w3.org/2000/svg" p-id="2425" xmlns:xlink="http://www.w3.org/1999/xlink" width="32.09375" height="32"><defs><style type="text/css"></style></defs><path d="M514.844444 684.555378c-13.653333 0-27.283911-3.436089-38.411377-10.285511L26.555733 396.310756C10.899911 386.6624 1.911467 371.461689 1.911467 354.622578s8.988444-32.039822 24.644266-41.710934L476.410311 34.975289c22.277689-13.767111 54.613333-13.767111 76.868267 0l449.877333 277.936355c15.655822 9.671111 24.644267 24.894578 24.644267 41.710934 0 16.839111-9.0112 32.039822-24.667022 41.710933L553.278578 674.247111c-11.127467 6.872178-24.7808 10.308267-38.434134 10.308267z m-425.915733-329.955556l423.344356 261.575111a13.1072 13.1072 0 0 0 5.688889-0.318577l422.798222-261.256534L517.393067 93.047467a13.562311 13.562311 0 0 0-5.643378 0.295822L88.928711 354.599822z m878.273422 16.361245l0.045511 0.022755-0.045511-0.022755z" fill="#ffffff" p-id="2426"></path><path d="M511.044267 989.866667C354.736356 989.866667 227.555556 873.198933 227.555556 729.770667V488.288711h68.266666V729.770667c0 105.767822 96.551822 191.829333 215.222045 191.829333s215.222044-86.061511 215.222044-191.829333V488.288711h68.266667V729.770667c0.022756 143.428267-127.158044 260.096-283.488711 260.096zM910.222222 736.392533a34.133333 34.133333 0 0 1-34.133333-34.133333V422.866489a34.133333 34.133333 0 1 1 68.266667 0v279.392711a34.133333 34.133333 0 0 1-34.133334 34.133333z" fill="#ffffff" p-id="2427"></path></svg>