<?xml version="1.0" standalone="no"?><!DOCTYPE svg PUBLIC "-//W3C//DTD SVG 1.1//EN" "http://www.w3.org/Graphics/SVG/1.1/DTD/svg11.dtd"><svg t="1550655927701" class="icon" style="" viewBox="0 0 1024 1024" version="1.1" xmlns="http://www.w3.org/2000/svg" p-id="3126" xmlns:xlink="http://www.w3.org/1999/xlink" width="42" height="42"><defs><style type="text/css"></style></defs><path d="M512 512m-512 0a512 512 0 1 0 1024 0 512 512 0 1 0-1024 0Z" fill="#00D67D" p-id="3127"></path><path d="M256 803.84c0 5.12 0 10.24 5.12 10.24s10.24 5.12 10.24 0l148.48-61.44-148.48-107.52c0 51.2-15.36 153.6-15.36 158.72z m30.72-194.56L460.8 727.04l276.48-358.4L563.2 245.76l-276.48 363.52z m465.92-317.44l-117.76-81.92c-5.12-5.12-15.36-5.12-25.6-5.12s-15.36 5.12-20.48 10.24l-10.24 10.24 174.08 122.88 10.24-10.24c5.12-5.12 5.12-15.36 5.12-20.48 0-10.24-5.12-15.36-15.36-25.6z m-97.28 81.92c10.24 5.12 10.24 20.48 5.12 25.6l-184.32 245.76c-5.12 10.24-20.48 10.24-25.6 5.12l-10.24-10.24c0-5.12 0-10.24 5.12-15.36l184.32-245.76c5.12-5.12 10.24-5.12 15.36-10.24 5.12 0 10.24 0 10.24 5.12z" fill="#FFFFFF" p-id="3128"></path></svg>