<?xml version="1.0" standalone="no"?><!DOCTYPE svg PUBLIC "-//W3C//DTD SVG 1.1//EN" "http://www.w3.org/Graphics/SVG/1.1/DTD/svg11.dtd"><svg t="1550564540953" class="icon" style="" viewBox="0 0 2259 1024" version="1.1" xmlns="http://www.w3.org/2000/svg" p-id="3842" xmlns:xlink="http://www.w3.org/1999/xlink" width="70.59375" height="32"><defs><style type="text/css"></style></defs><path d="M233.842759 90.423908c9.23954-1.588966 18.626207-2.148046 28.012873-2.177471 573.851954 0.058851 1147.733333 0 1721.585288 0.05885 44.167356-0.205977 87.775632 20.862529 115.052873 55.643219 20.568276 25.747126 31.985287 58.556322 31.897012 91.542069v523.475862c-0.117701 22.892874 1.353563 46.256552-5.208276 68.502069-15.889655 61.528276-75.505287 108.108506-139.122759 108.196781-565.936552 0.147126-1131.873103 0.029425-1697.809655 0.058851-20.656552-0.205977-41.607356 1.265287-61.881379-3.648736-47.404138-10.357701-88.187586-45.962299-105.048276-91.453793-6.708966-17.478621-9.710345-36.281379-9.533793-54.966437 0.058851-183.437241 0-366.874483 0.029425-550.311724-0.147126-38.547126 15.713103-76.8 43.108046-103.95954 21.215632-21.392184 49.257931-35.781149 78.918621-40.96m1206.083678 103.841839c0.470805 30.278621 0.029425 60.527816 0.235402 90.806437-45.874023 0-91.748046-0.058851-137.592644 0.029425 4.178391-9.828046 9.622069-19.244138 12.505748-29.572414l2.677701-0.294252 1.412413-2.854253-1.294712-2.412874c1.883218-2.736552 2.913103-5.737931 3.06023-9.033563l2.648276-0.235402 1.471264-2.795403-1.265287-2.471724c2.824828-5.002299 4.502069-10.563678 6.297011-16.007356l-9.298391-1.647816-0.735632-2.618851-3.089655-1.05931-2.206897 1.647816-5.561379-1.05931-0.441379-2.50115c-1.294713 0.029425-3.884138 0.147126-5.178851 0.205977l-3.325057-0.529655-0.647357-2.589425-3.06023-1.088736-2.236321 1.55954c-4.443218-1.794943-9.121839-2.824828-13.712184-4.001839-1.294713 4.11954-2.942529 8.18023-3.383908 12.476322l-2.618851 0.353103-1.412414 2.854253 1.324138 2.412874-0.205977 3.089655-2.61885 0.353104-1.382989 2.913103 1.353563 2.383448a23.628506 23.628506 0 0 0-3.266207 9.268966l-2.648275 0.411954-1.353564 2.913103 1.382989 2.354023c-1.765517 2.736552-2.824828 5.737931-3.148506 8.945288l-2.648276 0.235402-1.471264 2.824827 1.265287 2.442299c-3.795862 7.062069-6.650115 14.594943-10.29885 21.745288-0.088276 0.205977-0.294253 0.617931-0.382529 0.823908-1.824368 3.678161-3.678161 7.356322-5.531954 11.005057-0.088276 0.205977-0.323678 0.617931-0.411954 0.823908-16.36046 32.132414-36.487356 62.146207-57.82069 91.15954 3.648736 2.206897 7.326897 4.413793 11.093334 6.532414 9.886897 7.68 20.274023 15.036322 31.573333 20.538851l1.029885 0.765057c16.272184-24.511264 32.603218-49.051954 46.403678-75.063908 0.088276-0.176552 0.294253-0.55908 0.382529-0.735632 1.736092-3.207356 3.472184-6.414713 5.237701-9.592644 53.053793-0.088276 106.078161-0.029425 159.131954-0.05885-0.117701 32.250115 0 64.50023-0.05885 96.750345-93.013333 0.029425-186.026667-0.029425-279.04 0 0 14.830345-0.029425 29.631264 0.029425 44.461609 191.941149 0.058851 383.882299 0.058851 575.823448 0 0.029425-14.830345 0.029425-29.631264 0.029425-44.461609-82.685057-0.029425-165.34069 0.029425-248.025747 0 0-32.250115-0.029425-64.50023 0.029426-96.750345 67.942989 0 135.885977 0.058851 203.828965-0.029425 0.029425-14.918621 0.029425-29.866667 0-44.785288-67.942989-0.088276-135.885977-0.029425-203.828965-0.029425-0.058851-30.396322 0-60.822069-0.058851-91.218391-16.331034 0.205977-32.662069-0.529655-48.963678 0.411954M809.725057 225.544828c15.389425 42.784368 35.987126 83.744368 62.028506 121.026206 42.166437 61.145747 97.544828 112.286897 158.278621 154.60046 12.741149-15.624828 23.569655-32.868046 38.017471-47.08046-17.890575-11.711264-36.34023-22.569195-53.348046-35.604597-72.091954-52.524138-128.971034-125.99908-159.455632-210.008276-15.624828 4.354943-30.337471 11.475862-45.52092 17.066667m-136.003678-8.239081c-2.971954 6.414713-6.061609 12.770575-8.945287 19.214713-6.032184 8.209655-10.563678 17.478621-13.947586 27.071264-1.618391 2.707126-3.207356 5.443678-4.737472 8.209655-0.117701 0.176552-0.323678 0.55908-0.411954 0.735632-5.502529 9.710345-11.29931 19.273563-17.272643 28.689656-0.117701 0.176552-0.353103 0.529655-0.44138 0.706207-17.184368 27.012414-36.693333 52.494713-57.37931 76.888275-8.445057 7.68-16.684138 15.801379-23.069425 25.335173-21.804138 22.157241-44.491034 43.461149-68.649196 63.058391-6.17931-0.088276-0.117701 9.73977 3.737012 5.767356 12.123218 9.975172 23.069425 21.274483 32.868046 33.544828 59.056552-48.816552 109.373793-107.725977 150.892873-172.02023 0.088276-0.147126 0.294253-0.50023 0.411954-0.647357 1.353563-2.148046 4.06069-6.414713 5.414253-8.533333 0.117701-0.176552 0.323678-0.529655 0.44138-0.706207 10.063448-16.125057 19.567816-32.603218 28.66023-49.287356 0.117701-0.205977 0.323678-0.588506 0.411954-0.794483l5.737931-10.857931c0.088276-0.176552 0.294253-0.55908 0.382528-0.765057 3.531034-7.326897 8.18023-14.271264 10.416552-22.157242l2.354023-0.294253c-0.088276-1.206437-0.235402-3.678161-0.323678-4.884597l-2.118621 0.205977c-3.06023-1.441839-6.208736-2.442299-9.445517-3.089656l-0.264828-2.648275-2.824827-1.44184-2.442299 1.294713c-4.796322-2.648276-9.857471-4.825747-15.183448-6.091034l-0.353104-2.648276-2.913103-1.382989-2.383448 1.382989c-2.824828-1.412414-5.708506-2.707126-8.62161-3.854713m53.642299 208.890115c-1.147586 1.883218-3.501609 5.67908-4.678621 7.591724-0.117701 0.176552-0.323678 0.588506-0.441379 0.765058-39.95954 76.182069-82.743908 151.54023-137.092414 218.512184-13.035402 16.831264-30.778851 29.101609-49.405057 39.017931l-2.324598-1.382989-2.854253 1.265287-0.441379 2.589426-2.05977-0.323678c3.06023 9.062989 7.297471 17.772874 13.182529 25.335172 4.001839 8.503908 8.68046 16.654713 12.976551 25.04092 44.226207-9.798621 89.570575-11.034483 134.532414-14.506667 78.624368-5.208276 157.337011-9.474943 236.049655-13.329655 3.06023 4.649195 6.12046 9.327816 9.151265 14.035862 0.117701 0.176552 0.353103 0.529655 0.470804 0.676781 1.324138 2.05977 4.001839 6.17931 5.355403 8.209656 0.088276 0.176552 0.323678 0.50023 0.411954 0.676781 1.382989 2.089195 4.090115 6.297011 5.443678 8.386207 0.117701 0.176552 0.323678 0.529655 0.441379 0.706207 4.61977 7.238621 9.23954 14.477241 13.80046 21.774713 14.653793-9.798621 30.190345-18.685057 43.755402-29.866667-8.798161-16.890115-21.127356-31.808736-31.455632-47.845517-0.088276-0.147126-0.323678-0.470805-0.441379-0.617931-35.486897-50.64092-72.68046-100.104828-110.786207-148.803678-12.829425 7.68-25.276322 15.948506-37.782069 24.128735 24.246437 35.604598 49.787586 70.385287 73.651494 106.284138-91.777471 3.972414-183.554943 7.709425-275.332414 10.857931 55.996322-73.73977 107.137471-151.128276 153.717701-231.106207 5.767356-7.268046-7.268046-8.327356-11.240459-11.269885-0.205977-0.088276-0.617931-0.264828-0.794483-0.353103-3.354483-1.765517-6.797241-3.06023-10.416552-3.884138l-0.147126-2.677701-2.765977-1.530115-2.50115 1.235862c-5.002299-2.854253-10.445977-4.855172-15.624827-7.356322-0.205977-0.088276-0.647356-0.323678-0.882759-0.411954l-3.472184-1.824368m512.647356 106.46069c0.029425 77.447356 0.029425 154.894713 0 232.371494 15.91908 0.058851 31.838161 0.058851 47.757242-0.029425-0.029425-9.651494-0.029425-19.332414-0.029425-29.013334 107.931954 0 215.863908 0.029425 323.795862 0-0.088276 9.68092-0.088276 19.361839-0.058851 29.072184h45.314943l2.765977 0.029426v-232.518621l-2.736552 0.029425c-138.946207 0.029425-277.862989-0.058851-416.809196 0.058851z" fill="#3BA800" p-id="3843"></path><path d="M1287.738851 577.088736c107.931954 0.029425 215.863908 0.029425 323.795862 0-0.117701 39.106207-0.058851 78.182989-0.029426 117.289195-107.931954 0.117701-215.834483 0.029425-323.737011 0.058851-0.029425-39.135632 0-78.241839-0.029425-117.348046z" fill="#3BA800" p-id="3844"></path><path d="M1294.30069 209.743448l2.236321-1.55954 3.06023 1.088736 0.647357 2.589425c-1.50069-0.529655-4.472644-1.588966-5.943908-2.118621z" fill="#435D3B" p-id="3845"></path><path d="M1303.569655 212.391724c1.294713-0.058851 3.884138-0.176552 5.178851-0.205977l0.441379 2.50115c-1.412414-0.55908-4.207816-1.736092-5.62023-2.295173z" fill="#3A4936" p-id="3846"></path><path d="M1314.751264 215.746207l2.206897-1.647816 3.089655 1.05931 0.735632 2.618851c-1.50069-0.529655-4.531494-1.530115-6.032184-2.030345z" fill="#45613B" p-id="3847"></path><path d="M1274.585747 218.571034l2.618851-0.353103c-0.676782 1.412414-2.030345 4.207816-2.707127 5.62023l-1.324138-2.412874 1.412414-2.854253z" fill="#425C38" p-id="3848"></path><path d="M682.342989 221.16046l2.383448-1.382989 2.913103 1.382989 0.353104 2.648276c-1.412414-0.647356-4.237241-1.971494-5.649655-2.648276z" fill="#416035" p-id="3849"></path><path d="M1271.672644 227.28092l2.61885-0.353104c-0.647356 1.412414-1.971494 4.237241-2.648276 5.649655l-1.353563-2.383448 1.382989-2.913103z" fill="#3D5237" p-id="3850"></path><path d="M703.176092 229.89977l2.442299-1.294713 2.824827 1.44184 0.264828 2.648275c-1.382989-0.676782-4.148966-2.089195-5.531954-2.795402z" fill="#3D5436" p-id="3851"></path><path d="M718.153563 235.784828l2.118621-0.205977c0.088276 1.206437 0.235402 3.678161 0.323678 4.884597l-2.354023 0.294253c-0.029425-1.265287-0.058851-3.737011-0.088276-4.972873z" fill="#42523D" p-id="3852"></path><path d="M1320.930575 240.934253c0.735632-1.382989 2.148046-4.11954 2.854253-5.502529l1.265287 2.471724-1.471264 2.795403-2.648276 0.235402z" fill="#3A4C34" p-id="3853"></path><path d="M650.828506 263.591724c3.383908-9.592644 7.915402-18.861609 13.947586-27.071264a164.625655 164.625655 0 0 1-13.947586 27.071264z" fill="#386A21" p-id="3854"></path><path d="M1265.728736 242.258391l2.648275-0.411954c-0.647356 1.412414-1.942069 4.266667-2.61885 5.67908l-1.382989-2.354023 1.353564-2.913103z" fill="#416036" p-id="3855"></path><path d="M1315.074943 255.529195c0.706207-1.382989 2.089195-4.178391 2.795402-5.561379l1.294712 2.412874-1.412413 2.854253-2.677701 0.294252z" fill="#3E5835" p-id="3856"></path><path d="M1259.961379 256.706207l2.648276-0.235402c-0.706207 1.382989-2.118621 4.148966-2.854253 5.502528l-1.265287-2.442299 1.471264-2.824827z" fill="#3D5634" p-id="3857"></path><path d="M707.442759 263.68c0.088276-0.176552 0.294253-0.55908 0.382528-0.765057-0.088276 0.205977-0.294253 0.588506-0.382528 0.765057z" fill="#475E3F" p-id="3858"></path><path d="M645.67908 272.537011zM763.174253 442.644598c0.176552 0.088276 0.588506 0.264828 0.794483 0.353103-0.205977-0.088276-0.617931-0.264828-0.794483-0.353103z" fill="#465C3F" p-id="3859"></path><path d="M701.292874 275.332414z" fill="#4B6E3E" p-id="3860"></path><path d="M1249.074023 284.542529c0.088276-0.205977 0.294253-0.617931 0.382529-0.823908-0.088276 0.205977-0.294253 0.617931-0.382529 0.823908zM1243.130115 296.371494c0.088276-0.205977 0.323678-0.617931 0.411954-0.823908-0.088276 0.205977-0.323678 0.617931-0.411954 0.823908z" fill="#496540" p-id="3861"></path><path d="M627.965057 301.932874c0.088276-0.176552 0.323678-0.529655 0.44138-0.706207-0.117701 0.176552-0.353103 0.529655-0.44138 0.706207zM1275.409655 340.303448c0.088276-0.176552 0.294253-0.55908 0.382529-0.735632-0.088276 0.176552-0.294253 0.55908-0.382529 0.735632z" fill="#44583E" p-id="3862"></path><path d="M672.191264 325.325977c0.117701-0.176552 0.323678-0.529655 0.44138-0.706207-0.117701 0.176552-0.323678 0.529655-0.44138 0.706207zM730.835862 428.02023c0.235402 0.088276 0.676782 0.323678 0.882759 0.411954-0.205977-0.088276-0.647356-0.323678-0.882759-0.411954z" fill="#475F3F" p-id="3863"></path><path d="M666.365057 334.506667c0.088276-0.147126 0.294253-0.50023 0.411954-0.647357-0.117701 0.147126-0.323678 0.50023-0.411954 0.647357z" fill="#404E3B" p-id="3864"></path><path d="M547.516322 404.156322c6.385287-9.533793 14.624368-17.655172 23.069425-25.335173-6.826667 9.18069-14.477241 17.743448-23.069425 25.335173z" fill="#335F1E" p-id="3865"></path><path d="M1196.402759 394.063448c11.122759 5.885057 21.598161 12.858851 31.573333 20.538851-11.29931-5.502529-21.686437-12.858851-31.573333-20.538851z" fill="#325A1F" p-id="3866"></path><path d="M722.243678 434.552644c0.117701-0.176552 0.323678-0.588506 0.441379-0.765058-0.117701 0.176552-0.323678 0.588506-0.441379 0.765058z" fill="#48633F" p-id="3867"></path><path d="M747.343448 435.788506l2.50115-1.235862 2.765977 1.530115 0.147126 2.677701c-1.353563-0.765057-4.06069-2.236322-5.414253-2.971954z" fill="#3D5633" p-id="3868"></path><path d="M482.604138 472.982069c-3.854713 3.972414-9.916322-5.855632-3.737012-5.767356 0.941609 1.441839 2.795402 4.325517 3.737012 5.767356z" fill="#59A138" p-id="3869"></path><path d="M1656.82023 532.597701l2.736552-0.029425v232.518621l-2.765977-0.029426c0.058851-77.476782 0.117701-154.982989 0.029425-232.45977z" fill="#1C1E1C" p-id="3870"></path><path d="M530.567356 691.965057l2.854253-1.265287 2.324598 1.382989c-1.412414 0.617931-4.207816 1.853793-5.62023 2.471724l0.441379-2.589426z" fill="#406034" p-id="3871"></path><path d="M971.74069 692.906667z" fill="#497D37" p-id="3872"></path><path d="M528.066207 694.230805c5.061149 8.091954 9.386667 16.595862 13.182529 25.335172-5.885057-7.562299-10.122299-16.272184-13.182529-25.335172z" fill="#355D22" p-id="3873"></path><path d="M933.958621 730.806437c0.117701 0.176552 0.353103 0.529655 0.470804 0.676781-0.117701-0.147126-0.353103-0.50023-0.470804-0.676781z" fill="#455A3E" p-id="3874"></path><path d="M939.784828 739.692874c0.088276 0.176552 0.323678 0.50023 0.411954 0.676781-0.088276-0.176552-0.323678-0.50023-0.411954-0.676781z" fill="#42543D" p-id="3875"></path><path d="M945.64046 748.755862c0.117701 0.176552 0.323678 0.529655 0.441379 0.706207-0.117701-0.176552-0.323678-0.529655-0.441379-0.706207z" fill="#3D4A39" p-id="3876"></path></svg>