<?xml version="1.0" standalone="no"?><!DOCTYPE svg PUBLIC "-//W3C//DTD SVG 1.1//EN" "http://www.w3.org/Graphics/SVG/1.1/DTD/svg11.dtd"><svg t="1550499441606" class="icon" style="" viewBox="0 0 1279 1024" version="1.1" xmlns="http://www.w3.org/2000/svg" p-id="8932" xmlns:xlink="http://www.w3.org/1999/xlink" width="29.9765625" height="24"><defs><style type="text/css"></style></defs><path d="M1210.238487 453.120714h-243.039696c-27.583966 0-49.919938 22.463972-49.919938 50.111937v15.61598c0 27.711965 22.335972 50.111937 49.919938 50.111938h243.039696c27.583966 0 49.919938-22.399972 49.919938-50.111938v-15.61598c0-27.647965-22.335972-50.111937-49.919938-50.111937zM646.303192 23.041251C570.687287 83.201176 412.479484 167.457071 298.655627 248.448969l-0.16 0.096c-1.311998 0.799999-2.623997 5.279993-3.903995 6.015993-13.471983 7.583991-19.519976 28.479964-92.607884 28.479964H59.327926C22.719972 283.008926 0 300.160905 0 338.784857v343.51957c0 38.655952 20.831974 57.727928 59.327926 57.727928H202.559747c72.767909 0.096 78.655902 20.863974 92.063885 28.415964 1.279998 0.767999 2.559997 5.247993 3.903995 6.047993l0.16 0.064c110.239862 80.991899 269.535663 171.839785 347.647565 229.471713 23.519971 17.375978 101.759873 47.90394 101.759873-59.455926V77.921183c0-107.359866-78.879901-73.055909-101.791873-54.847932z m224.44772 236.863704c12.927984 22.751972 38.495952 28.479964 57.151928 12.767984l199.80775-168.415789c18.687977-15.71198 23.359971-46.911941 10.463987-69.759913l-7.359991-12.863984c-12.863984-22.751972-38.463952-28.479964-57.119928-12.767984L873.918908 177.281058c-18.687977 15.74398-23.359971 46.943941-10.463987 69.727913l7.295991 12.927984z m57.119928 490.399387c-18.655977-15.71198-44.223945-10.015987-57.151928 12.703984l-7.295991 12.895984c-12.927984 22.783972-8.19199 53.983933 10.431987 69.727913l199.80775 168.383789c18.687977 15.67998 44.255945 9.983988 57.119929-12.735984l7.35999-12.895983c12.863984-22.751972 8.15999-53.951933-10.463987-69.727913l-199.80775-168.35179z" p-id="8933" fill="#ffffff"></path></svg>