<?xml version="1.0" standalone="no"?><!DOCTYPE svg PUBLIC "-//W3C//DTD SVG 1.1//EN" "http://www.w3.org/Graphics/SVG/1.1/DTD/svg11.dtd"><svg t="1550223214637" class="icon" style="" viewBox="0 0 1024 1024" version="1.1" xmlns="http://www.w3.org/2000/svg" p-id="1153" xmlns:xlink="http://www.w3.org/1999/xlink" width="32" height="32"><defs><style type="text/css"></style></defs><path d="M512 85.333333a341.333333 341.333333 0 1 0 0 682.666667A341.333333 341.333333 0 0 0 512 85.333333z m149.546667 444.842667a32.554667 32.554667 0 0 1-45.994667 45.994667L512 472.661333l-103.509333 103.552a32.554667 32.554667 0 0 1-46.08-46.037333L466.048 426.666667 362.496 323.157333a32.554667 32.554667 0 1 1 46.037333-46.037333L512 380.629333l103.509333-103.509333a32.597333 32.597333 0 0 1 45.994667 46.037333L558.037333 426.666667l103.509334 103.509333z" fill="#F23030" p-id="1154"></path></svg>