<?xml version="1.0" standalone="no"?><!DOCTYPE svg PUBLIC "-//W3C//DTD SVG 1.1//EN" "http://www.w3.org/Graphics/SVG/1.1/DTD/svg11.dtd"><svg t="1550111465033" class="icon" style="" viewBox="0 0 1024 1024" version="1.1" xmlns="http://www.w3.org/2000/svg" p-id="2526" xmlns:xlink="http://www.w3.org/1999/xlink" width="200" height="200"><defs><style type="text/css"></style></defs><path d="M757.381 259.586c-5.866 0.224-11.586 0.301-17.227 0.301-147.665 0-212.811-66.724-213.335-67.326l-14.744-15.872-14.821 15.872c-0.602 0.68-64.391 67.326-213.335 67.326-5.642 0-11.36-0.077-17.226-0.301l-20.687-0.676v302.477c0 79.209 26.854 194.752 258.77 283.141l7.222 2.784 7.221-2.784c231.994-88.389 258.774-203.932 258.774-283.141V258.91l-20.612 0.676z" fill="#0677E1" p-id="2527"></path><path d="M645.895 461.473c0 186.105-125.473 209.265-130.949 210.524h-7.158c-5.053-0.417-129.682-24.84-129.682-210.524V411.37c0-5.477 2.523-10.948 6.735-14.737 3.789-3.79 8.844-5.476 13.477-5.476h9.681c8.845 0 25.263-0.417 41.264-4.206 24.842-5.477 49.26-31.581 50.104-32.004 3.789-1.681 8-2.946 11.789-2.946 4.212 0 8.002 1.266 10.947 2.946 7.579 4.212 30.738 27.37 51.367 32.004 16.002 3.789 32.843 4.206 41.265 4.206h10.104c5.476 0 10.524 1.686 14.315 5.476 4.212 3.789 6.741 9.261 6.741 14.737v50.103z" fill="#FFFFFF" p-id="2528"></path></svg>