<?xml version="1.0" standalone="no"?><!DOCTYPE svg PUBLIC "-//W3C//DTD SVG 1.1//EN" "http://www.w3.org/Graphics/SVG/1.1/DTD/svg11.dtd"><svg t="1550126168841" class="icon" style="" viewBox="0 0 1024 1024" version="1.1" xmlns="http://www.w3.org/2000/svg" p-id="8676" xmlns:xlink="http://www.w3.org/1999/xlink" width="200" height="200"><defs><style type="text/css"></style></defs><path d="M937.472 467.456c0-38.4-31.232-70.144-70.144-70.144h-37.376v-34.816c0-86.016-33.792-166.912-94.208-227.84-60.928-60.928-141.824-94.208-227.84-94.208s-166.912 33.792-227.84 94.208C219.136 195.072 185.856 276.48 185.856 362.496V397.824h-32.768c-38.4 0-70.144 31.232-70.144 70.144v446.464c0 38.4 31.232 70.144 70.144 70.144h714.752c38.4 0 70.144-31.232 70.144-70.144V467.456zM236.544 362.496c0-72.704 28.16-140.8 79.36-192s119.808-79.36 192-79.36c72.704 0 140.8 28.16 192 79.36s79.36 119.808 79.36 192V397.312h-542.72v-34.816z m650.752 551.424c0 10.752-8.704 19.456-19.456 19.456H153.088c-10.752 0-19.456-8.704-19.456-19.456V467.456c0-10.752 8.704-19.456 19.456-19.456h714.752c10.752 0 19.456 8.704 19.456 19.456v446.464z" fill="#108EFF" p-id="8677"></path><path d="M510.464 849.92h4.608c38.4 0 70.144-31.232 70.144-70.144v-46.592l1.024-1.024c25.088-22.016 39.424-53.248 39.424-86.528 0-62.976-51.2-114.688-114.688-114.688-62.976 0-114.688 51.2-114.688 114.688 0 34.816 16.384 68.096 43.52 90.112l1.024 1.024v43.008c-0.512 38.912 30.72 70.144 69.632 70.144z m0-267.776c35.328 0 64 28.672 64 64 0 21.504-10.752 41.472-28.672 53.248l-11.264 7.68v73.216c0 10.752-8.704 19.456-19.456 19.456h-4.608c-10.752 0-19.456-8.704-19.456-19.456v-71.68l-12.8-7.168c-19.968-11.264-32.256-32.768-32.256-55.296 0.512-35.328 29.184-64 64.512-64z" fill="#108EFF" p-id="8678"></path></svg>