<?xml version="1.0" standalone="no"?><!DOCTYPE svg PUBLIC "-//W3C//DTD SVG 1.1//EN" "http://www.w3.org/Graphics/SVG/1.1/DTD/svg11.dtd"><svg t="1550581190564" class="icon" style="" viewBox="0 0 1024 1024" version="1.1" xmlns="http://www.w3.org/2000/svg" p-id="6967" xmlns:xlink="http://www.w3.org/1999/xlink" width="32" height="32"><defs><style type="text/css"></style></defs><path d="M169.763384 564.149726c7.213338-1.803334 16.23001-1.803334 23.443348 1.803334 7.213338 5.410003 12.623341 10.820006 16.230009 19.836679 3.606669 7.213338 1.803334 18.033344-1.803334 25.246682-3.606669 9.016672-10.820006 14.426675-19.836679 18.033344s-18.033344 1.803334-27.050016-1.803335c-9.016672-5.410003-16.23001-12.623341-18.033344-21.640013v-14.426675c1.803334-3.606669 3.606669-9.016672 5.410003-12.623341 5.410003-7.213338 14.426675-12.623341 21.640013-14.426675z m1.803335 3.606669c-7.213338 3.606669-12.623341 9.016672-14.426676 12.623341-1.803334 7.213338-1.803334 14.426675 0 19.836678s5.410003 10.820006 10.820007 14.426675c7.213338 3.606669 12.623341 5.410003 19.836678 3.606669 7.213338-1.803334 12.623341-7.213338 16.23001-12.623341 1.803334-5.410003 3.606669-12.623341 1.803334-19.836678-1.803334-7.213338-5.410003-12.623341-12.62334-16.23001s-14.426675-3.606669-21.640013-1.803334z" fill="#00BBBB" p-id="6968"></path><path d="M202.223404 589.396408c1.803334 5.410003 0 10.820006-5.410004 12.623341-5.410003 1.803334-1.803334-5.410003-3.606668-10.820007s-9.016672-9.016672-3.606669-10.820006c5.410003-1.803334 9.016672 1.803334 12.623341 9.016672zM81.399998 701.203141c14.426675 5.410003 25.246682 16.23001 30.656685 32.460019 5.410003 12.623341 7.213338 28.853351 1.803335 43.280026-3.606669 12.623341-14.426675 25.246682-28.853351 32.460019-14.426675 5.410003-30.656685 7.213338-45.08336 1.803335-14.426675-5.410003-27.050016-16.23001-34.263354-30.656685-7.213338-16.23001-7.213338-34.263354-1.803334-48.690029 3.606669-7.213338 9.016672-14.426675 14.426675-19.836679s12.623341-10.820006 19.836678-12.62334c14.426675-5.410003 30.656685-3.606669 43.280026 1.803334z m-1.803334 7.213338c-12.623341-3.606669-25.246682-1.803334-34.263354 3.606668-9.016672 7.213338-16.23001 16.23001-19.836678 27.050017s-3.606669 21.640013 0 32.460019c3.606669 9.016672 10.820006 18.033344 21.640013 23.443347 10.820006 3.606669 23.443347 5.410003 34.263353 0 10.820006-5.410003 19.836678-14.426675 25.246682-25.246681 3.606669-10.820006 5.410003-23.443347 0-36.066689-5.410003-10.820006-14.426675-21.640013-27.050016-25.246681z" fill="#00BBBB" p-id="6969"></path><path d="M97.630008 767.926514c-3.606669 10.820006-12.623341 16.23001-19.836679 12.623341-7.213338-3.606669 3.606669-7.213338 7.213338-18.033344s0-21.640013 7.213338-18.033344c7.213338 3.606669 10.820006 14.426675 5.410003 23.443347zM997.493877 338.732925c10.820006 7.213338 18.033344 18.033344 23.443348 30.656685 3.606669 12.623341 1.803334 27.050016-5.410004 37.870023-7.213338 10.820006-18.033344 19.836678-30.656685 23.443347-14.426675 3.606669-27.050016 1.803334-37.870022-5.410003-12.623341-7.213338-21.640013-18.033344-25.246682-32.46002-3.606669-14.426675-1.803334-28.853351 5.410003-41.476691 3.606669-5.410003 9.016672-10.820006 14.426676-14.426675 7.213338-3.606669 12.623341-5.410003 19.836678-7.213338 12.623341-1.803334 25.246682 1.803334 36.066688 9.016672z m-3.606669 5.410003c-9.016672-5.410003-21.640013-5.410003-30.656684-1.803334-9.016672 5.410003-16.23001 10.820006-21.640013 19.836678-5.410003 7.213338-7.213338 18.033344-5.410004 27.050017 1.803334 9.016672 7.213338 18.033344 16.23001 23.443347s18.033344 7.213338 28.853351 5.410003c10.820006-3.606669 19.836678-9.016672 25.246681-18.033344 5.410003-9.016672 7.213338-19.836678 5.410004-30.656685-1.803334-10.820006-9.016672-19.836678-18.033345-25.246682z" fill="#00BBBB" p-id="6970"></path><path d="M1001.100546 400.046295c-5.410003 7.213338-14.426675 10.820006-19.836678 7.213338-5.410003-3.606669 3.606669-7.213338 9.016672-14.426676s3.606669-18.033344 9.016672-14.426675 7.213338 12.623341 1.803334 21.640013zM395.180185 1004.163322c-12.623341 10.820006-28.853351 18.033344-46.886694 19.836678-16.23001 0-34.263354-7.213338-46.886695-19.836678-12.623341-12.623341-19.836678-30.656685-19.836679-48.690029s7.213338-37.870023 19.836679-48.690029c12.623341-12.623341 30.656685-21.640013 50.493363-21.640013 18.033344-1.803334 37.870023 7.213338 50.493364 21.640013 7.213338 7.213338 10.820006 16.23001 14.426675 25.246681 1.803334 9.016672 3.606669 18.033344 1.803334 27.050016-1.803334 18.033344-10.820006 34.263354-23.443347 45.083361z m-5.410003-7.213338c10.820006-10.820006 14.426675-25.246682 14.426675-41.476691 0-12.623341-7.213338-25.246682-16.230009-34.263354s-21.640013-14.426675-34.263354-16.23001c-12.623341 0-25.246682 3.606669-36.066688 12.623341s-18.033344 21.640013-18.033344 36.066688c-1.803334 14.426675 3.606669 28.853351 12.62334 39.673357s23.443347 16.23001 37.870023 18.033344c14.426675 1.803334 28.853351-3.606669 39.673357-14.426675z" fill="#00BBBB" p-id="6971"></path><path d="M314.030137 989.736646c-7.213338-9.016672-9.016672-21.640013-1.803335-28.85335 7.213338-7.213338 7.213338 7.213338 16.23001 16.230009s23.443347 9.016672 16.23001 16.23001c-7.213338 5.410003-19.836678 3.606669-30.656685-3.606669zM488.953574 980.719974c-3.606669-9.016672-3.606669-16.23001 1.803335-23.443347 3.606669-9.016672 10.820006-14.426675 18.033344-18.033344s18.033344-3.606669 25.246682 0 14.426675 9.016672 18.033344 18.033344 3.606669 18.033344 0 27.050016c-3.606669 7.213338-10.820006 14.426675-19.836679 18.033344-5.410003 1.803334-9.016672 1.803334-14.426675 1.803335-3.606669 0-9.016672-1.803334-12.623341-3.606669-9.016672-5.410003-14.426675-12.623341-16.23001-19.836679z m3.606669-1.803334c1.803334 7.213338 9.016672 12.623341 14.426675 12.623341 7.213338 3.606669 14.426675 1.803334 19.836679 0 7.213338-3.606669 10.820006-7.213338 14.426675-12.623341s3.606669-10.820006 1.803335-18.033344c-1.803334-5.410003-7.213338-10.820006-12.623341-14.426676-5.410003-3.606669-12.623341-3.606669-19.836679-1.803334-7.213338 1.803334-12.623341 5.410003-16.230009 12.623341s-5.410003 14.426675-1.803335 21.640013z" fill="#00BBBB" p-id="6972"></path><path d="M512.396922 950.063289c5.410003-3.606669 10.820006 0 12.623341 3.606669s-5.410003 1.803334-10.820007 3.606669-9.016672 7.213338-10.820006 3.606669c-1.803334-5.410003 1.803334-10.820006 9.016672-10.820007zM348.293491 641.693106c14.426675 1.803334 27.050016 9.016672 36.066688 18.033344 9.016672 10.820006 14.426675 27.050016 12.623341 41.476691 0 16.23001-7.213338 30.656685-19.836679 39.673357-12.623341 10.820006-27.050016 16.23001-43.280026 14.426675-16.23001-1.803334-30.656685-9.016672-41.476691-21.640013-9.016672-12.623341-14.426675-28.853351-12.623341-45.08336 1.803334-7.213338 5.410003-14.426675 9.016672-21.640013 3.606669-7.213338 9.016672-12.623341 16.23001-16.230009 12.623341-9.016672 28.853351-10.820006 43.280026-9.016672z m-1.803335 7.213337c-12.623341-1.803334-25.246682 3.606669-32.460019 12.623341-7.213338 9.016672-12.623341 19.836678-12.623341 30.656685 0 10.820006 1.803334 21.640013 9.016672 30.656685 5.410003 9.016672 16.23001 16.23001 27.050016 18.033344s23.443347-1.803334 32.460019-9.016672 16.23001-18.033344 18.033345-30.656685c1.803334-10.820006-1.803334-23.443347-9.016672-34.263354-7.213338-10.820006-19.836678-16.23001-32.46002-18.033344z" fill="#00BBBB" p-id="6973"></path><path d="M380.75351 697.596472c0 10.820006-7.213338 19.836678-16.23001 18.033344-9.016672 0 0-7.213338 1.803335-18.033344 0-9.016672-7.213338-19.836678 1.803334-18.033344 7.213338 1.803334 14.426675 10.820006 12.623341 18.033344zM198.616735 894.159923c3.606669 3.606669 7.213338 9.016672 5.410003 18.033344 1.803334 7.213338 0 14.426675-3.606669 19.836678s-9.016672 9.016672-16.23001 10.820007c-7.213338 1.803334-14.426675 0-19.836678-3.606669s-9.016672-10.820006-10.820006-18.033344c-1.803334-7.213338 0-16.23001 5.410003-21.640013 3.606669-3.606669 5.410003-5.410003 9.016672-7.213338 3.606669-1.803334 7.213338-3.606669 10.820006-3.606669 7.213338-1.803334 14.426675 1.803334 19.836679 5.410004z m-3.606669 1.803334c-3.606669-3.606669-10.820006-3.606669-16.23001-1.803334-5.410003 1.803334-9.016672 5.410003-12.623341 9.016672s-3.606669 9.016672-3.606668 14.426675c0 3.606669 3.606669 9.016672 7.213337 12.623341 3.606669 1.803334 9.016672 3.606669 14.426675 3.606669s10.820006-3.606669 14.426676-7.213338c3.606669-5.410003 5.410003-10.820006 5.410003-16.23001-1.803334-5.410003-3.606669-10.820006-9.016672-14.426675z" fill="#00BBBB" p-id="6974"></path><path d="M196.8134 924.816608c-3.606669 5.410003-7.213338 5.410003-10.820006 3.606668-3.606669-1.803334 1.803334-3.606669 5.410003-7.213337s1.803334-9.016672 5.410003-7.213338c3.606669 1.803334 3.606669 7.213338 0 10.820007z" fill="#00BBBB" p-id="6975"></path><path d="M925.360501 845.469894c-3.606669 5.410003-9.016672 10.820006-16.23001 12.623341-7.213338 1.803334-14.426675 0-21.640013-3.606669-7.213338-3.606669-12.623341-10.820006-14.426675-18.033344-1.803334-7.213338 0-16.23001 3.606669-23.443348s10.820006-12.623341 18.033344-14.426675c7.213338-3.606669 16.23001-1.803334 23.443347 3.606669 3.606669 1.803334 7.213338 5.410003 9.016672 9.016672 1.803334 3.606669 3.606669 7.213338 3.606669 10.820006 1.803334 9.016672 0 16.23001-5.410003 23.443348z m-1.803334-3.606669c1.803334-5.410003 1.803334-12.623341 0-18.033344-1.803334-5.410003-5.410003-9.016672-10.820007-12.623341-5.410003-3.606669-10.820006-5.410003-16.23001-3.606669-5.410003 0-10.820006 3.606669-14.426675 9.016672-3.606669 5.410003-5.410003 12.623341-3.606669 18.033344 1.803334 5.410003 5.410003 10.820006 10.820007 14.426675s10.820006 5.410003 18.033344 3.606669c7.213338 0 12.623341-5.410003 16.23001-10.820006z" fill="#00BBBB" p-id="6976"></path><path d="M889.293813 847.273228c-3.606669-3.606669-5.410003-9.016672-3.606669-12.623341 3.606669-3.606669 3.606669 1.803334 9.016672 5.410003 5.410003 3.606669 10.820006 1.803334 9.016672 5.410004-1.803334 3.606669-9.016672 5.410003-14.426675 1.803334z" fill="#00BBBB" p-id="6977"></path><path d="M876.670472 650.709778c-12.623341 5.410003-28.853351 5.410003-39.673357 0-14.426675-3.606669-25.246682-14.426675-32.460019-27.050016-7.213338-12.623341-9.016672-28.853351-3.606669-43.280026 5.410003-12.623341 14.426675-25.246682 28.85335-32.46002 14.426675-7.213338 30.656685-9.016672 45.083361-3.606668 14.426675 3.606669 28.853351 16.23001 34.263353 30.656685 1.803334 7.213338 3.606669 16.23001 3.606669 23.443347 0 9.016672-1.803334 16.23001-5.410003 23.443347-5.410003 12.623341-18.033344 23.443347-30.656685 28.853351z m-3.606669-7.213338c10.820006-5.410003 19.836678-16.23001 21.640013-27.050016 1.803334-10.820006 0-23.443347-3.606669-32.460019-5.410003-9.016672-14.426675-18.033344-23.443347-21.640013-10.820006-3.606669-21.640013-3.606669-32.460019 0-10.820006 3.606669-19.836678 12.623341-23.443348 23.443347-5.410003 10.820006-5.410003 23.443347 0 34.263354 5.410003 10.820006 14.426675 19.836678 25.246682 25.246681 10.820006 3.606669 25.246682 3.606669 36.066688-1.803334z" fill="#00BBBB" p-id="6978"></path><path d="M820.767105 618.249758c-3.606669-9.016672-1.803334-19.836678 5.410004-23.443347 7.213338-3.606669 3.606669 7.213338 7.213337 16.23001s14.426675 12.623341 7.213338 16.230009c-9.016672 3.606669-18.033344 0-19.836679-9.016672z" fill="#00BBBB" p-id="6979"></path><path d="M759.453736 391.029623c0-7.213338 3.606669-12.623341 10.820006-18.033344 5.410003-3.606669 12.623341-5.410003 19.836678-5.410003 7.213338 1.803334 14.426675 5.410003 18.033345 10.820006 3.606669 5.410003 7.213338 12.623341 5.410003 19.836679-1.803334 7.213338-5.410003 14.426675-10.820007 19.836678s-14.426675 7.213338-21.640013 5.410003c-3.606669 0-7.213338-1.803334-10.820006-3.606669-3.606669-3.606669-5.410003-5.410003-7.213338-9.016672-3.606669-5.410003-5.410003-12.623341-3.606668-19.836678z m3.606668 0c-1.803334 7.213338 0 12.623341 5.410004 16.23001 3.606669 3.606669 9.016672 7.213338 14.426675 7.213337 5.410003 0 10.820006 0 14.426675-3.606669 5.410003-1.803334 7.213338-7.213338 9.016672-12.62334 0-5.410003 0-10.820006-3.606669-16.23001s-9.016672-7.213338-14.426675-9.016672c-5.410003-1.803334-10.820006 0-16.23001 3.606669-5.410003 3.606669-9.016672 9.016672-9.016672 14.426675z" fill="#00BBBB" p-id="6980"></path><path d="M788.307086 376.602948c3.606669 1.803334 7.213338 5.410003 7.213338 9.016672s-3.606669-1.803334-9.016672-1.803335c-5.410003-1.803334-9.016672 1.803334-9.016672-1.803334s5.410003-7.213338 10.820006-5.410003z" fill="#00BBBB" p-id="6981"></path><path d="M858.637128 199.876176c0-5.410003 0-12.623341 3.606669-18.033344s9.016672-9.016672 16.230009-12.623341c5.410003 0 12.623341 0 18.033344 3.606669 5.410003 3.606669 9.016672 9.016672 10.820007 14.426675 0 7.213338 0 14.426675-3.606669 19.836678-3.606669 7.213338-9.016672 10.820006-16.23001 12.623341h-10.820006c-3.606669 0-7.213338-1.803334-9.016672-3.606669-5.410003-3.606669-7.213338-10.820006-9.016672-16.230009z m3.606669 0c1.803334 3.606669 5.410003 9.016672 9.016672 10.820006 5.410003 3.606669 9.016672 3.606669 14.426675 1.803335 3.606669 0 7.213338-3.606669 10.820006-7.213338s3.606669-9.016672 3.606669-14.426675-3.606669-9.016672-7.213337-12.623341-9.016672-5.410003-14.426676-3.606669c-5.410003 1.803334-10.820006 3.606669-12.62334 9.016672-3.606669 5.410003-5.410003 10.820006-3.606669 16.23001z" fill="#00BBBB" p-id="6982"></path><path d="M878.473806 176.432828c3.606669 0 9.016672 1.803334 9.016672 5.410004 1.803334 3.606669-3.606669 0-7.213337 1.803334s-7.213338 5.410003-7.213338 1.803334c-1.803334-3.606669 1.803334-7.213338 5.410003-9.016672z" fill="#00BBBB" p-id="6983"></path><path d="M353.703494 203.482845c-5.410003 7.213338-10.820006 12.623341-18.033344 14.426675s-16.23001 0-19.836679-3.606669c-7.213338-3.606669-12.623341-10.820006-14.426675-18.033344-1.803334-7.213338 0-16.23001 3.606669-23.443347s10.820006-12.623341 18.033344-14.426676c7.213338-1.803334 16.23001-1.803334 23.443347 3.606669 3.606669 1.803334 7.213338 5.410003 9.016672 9.016672 1.803334 3.606669 3.606669 7.213338 3.606669 10.820007 0 7.213338-1.803334 14.426675-5.410003 21.640013z m-3.606669-1.803335c3.606669-5.410003 3.606669-12.623341 0-18.033344-1.803334-5.410003-5.410003-9.016672-10.820006-12.623341-5.410003-3.606669-10.820006-5.410003-16.23001-3.606669-5.410003 0-10.820006 3.606669-14.426675 9.016672s-5.410003 12.623341-3.606669 18.033345 5.410003 10.820006 10.820006 14.426675 10.820006 5.410003 18.033344 3.606669c7.213338 0 12.623341-5.410003 16.23001-10.820007z" fill="#00BBBB" p-id="6984"></path><path d="M315.833471 207.089513c-3.606669-3.606669-5.410003-9.016672-3.606669-12.62334 3.606669-3.606669 3.606669 1.803334 9.016672 5.410003s10.820006 1.803334 9.016672 5.410003c-1.803334 3.606669-7.213338 3.606669-14.426675 1.803334z" fill="#00BBBB" p-id="6985"></path><path d="M164.353381 10.526063c10.820006 7.213338 18.033344 18.033344 23.443347 30.656685 3.606669 12.623341 1.803334 27.050016-5.410003 37.870022s-18.033344 19.836678-30.656685 23.443348c-14.426675 3.606669-27.050016 1.803334-39.673357-5.410003S90.41667 77.249436 86.810001 64.626095c-5.410003-14.426675-1.803334-28.853351 5.410004-41.476691 3.606669-5.410003 9.016672-10.820006 14.426675-14.426675C113.860018 5.11606 119.270021 3.312725 126.483358 1.509391c14.426675-1.803334 27.050016 1.803334 37.870023 9.016672z m-3.606669 5.410003C151.73004 10.526063 139.106699 10.526063 130.090027 14.132732s-16.23001 9.016672-21.640013 18.033344c-5.410003 7.213338-7.213338 18.033344-5.410003 27.050016 1.803334 9.016672 7.213338 18.033344 16.23001 23.443347 7.213338 5.410003 18.033344 7.213338 28.85335 5.410003 10.820006-1.803334 19.836678-7.213338 25.246682-16.230009s7.213338-19.836678 5.410003-30.656685-9.016672-19.836678-18.033344-25.246682z" fill="#00BBBB" p-id="6986"></path><path d="M167.96005 70.036098c-5.410003 7.213338-14.426675 10.820006-19.836679 7.213338-5.410003-3.606669 3.606669-7.213338 9.016672-14.426675 5.410003-9.016672 3.606669-18.033344 9.016672-14.426676 5.410003 3.606669 7.213338 14.426675 1.803335 21.640013z" fill="#00BBBB" p-id="6987"></path><path d="M113.860018 502.836356s91.970055 88.363386 117.216736 115.413402c27.050016 27.050016 72.133376 124.430074 198.366785 124.430074 0 0 126.233409 133.446746 155.086759 144.266753 0 0 155.086759 135.250081 248.860148 137.053415-55.903367-14.426675-173.120103-144.266753-144.266752-216.400129 28.853351-72.133376-3.606669-210.990126-36.066689-212.79346L613.383648 621.856427c12.623341-19.836678 23.443347-39.673357 28.853351-48.690029 0 0 144.266753 90.16672 192.956782 104.593396-3.606669-3.606669 9.016672-310.173518-10.820007-337.223534-27.050016 3.606669-156.890093 106.39673-207.383457 93.773389-5.410003-7.213338-10.820006-16.23001-16.230009-23.443348 0 0 66.723373-9.016672 88.363386-14.426675 0 0 28.853351-59.510035 18.033344-111.806733C694.533697 232.336195 822.57044 73.642767 907.327157 5.11606c-137.053415-50.493363-575.263676 288.533505-607.723695 324.600193-43.280026 5.410003-129.840077 122.62674-155.086759 156.890094 0 0-18.033344 21.640013-30.656685 16.230009z m113.610067-19.836678c0-7.213338 5.410003-12.623341 12.623341-12.623341 7.213338 0 12.623341 5.410003 12.623341 12.623341 0 7.213338-5.410003 12.623341-12.623341 12.623341-7.213338 0-12.623341-7.213338-12.623341-12.623341z" fill="#00BBBB" p-id="6988"></path></svg>