<?xml version="1.0" standalone="no"?><!DOCTYPE svg PUBLIC "-//W3C//DTD SVG 1.1//EN" "http://www.w3.org/Graphics/SVG/1.1/DTD/svg11.dtd"><svg t="1550629728347" class="icon" style="" viewBox="0 0 2304 1024" version="1.1" xmlns="http://www.w3.org/2000/svg" p-id="2727" xmlns:xlink="http://www.w3.org/1999/xlink" width="72" height="32"><defs><style type="text/css"></style></defs><path d="M2208 1024h-2112C38.4 1024 0 985.6 0 928v-832C0 38.4 38.4 0 96 0h2112c57.6 0 96 38.4 96 96v832c0 57.6-38.4 96-96 96zM96 64c-19.2 0-32 12.8-32 32v832c0 19.2 12.8 32 32 32h2112c19.2 0 32-12.8 32-32v-832c0-19.2-12.8-32-32-32h-2112z" fill="#F9873C" p-id="2728"></path><path d="M998.4 185.6c32 25.6 57.6 51.2 83.2 76.8l-32 32h83.2v64h-211.2c6.4 83.2 12.8 147.2 25.6 192 0 12.8 6.4 25.6 12.8 38.4 32-51.2 51.2-108.8 76.8-179.2l64 25.6c-25.6 89.6-64 166.4-108.8 230.4 6.4 19.2 12.8 32 25.6 44.8 19.2 32 38.4 44.8 51.2 44.8 6.4 0 19.2-32 25.6-102.4l57.6 32c-19.2 96-44.8 147.2-76.8 147.2s-64-19.2-96-64c-12.8-12.8-19.2-32-32-44.8-44.8 51.2-102.4 96-166.4 121.6l-38.4-57.6c70.4-32 121.6-76.8 172.8-134.4-12.8-25.6-19.2-51.2-25.6-83.2-12.8-57.6-25.6-128-32-211.2H627.2v102.4h172.8c0 128-6.4 204.8-19.2 243.2-12.8 32-38.4 44.8-70.4 44.8-19.2 0-38.4 0-57.6-6.4l-19.2-57.6H704c12.8 0 19.2-6.4 25.6-25.6 6.4-19.2 6.4-64 6.4-140.8H627.2v6.4c0 128-32 236.8-83.2 313.6l-51.2-44.8c44.8-64 64-153.6 70.4-268.8V294.4h288V192h70.4v102.4H1024c-19.2-19.2-44.8-44.8-70.4-64l44.8-44.8z m262.4 32h486.4v281.6H1536v51.2h275.2v64h-224c51.2 57.6 128 108.8 243.2 153.6l-44.8 57.6c-115.2-64-198.4-134.4-249.6-211.2v224h-64V614.4c-51.2 83.2-134.4 153.6-256 211.2l-38.4-64c108.8-38.4 185.6-89.6 236.8-147.2h-224v-64H1472v-51.2h-211.2V217.6z m416 224V384H1536v51.2l140.8 6.4z m-204.8 0V384h-140.8v51.2l140.8 6.4z m-147.2-115.2H1472v-51.2h-140.8l-6.4 51.2z m211.2-51.2v57.6h140.8v-57.6H1536z" fill="#F9873C" p-id="2729"></path></svg>