<?xml version="1.0" standalone="no"?><!DOCTYPE svg PUBLIC "-//W3C//DTD SVG 1.1//EN" "http://www.w3.org/Graphics/SVG/1.1/DTD/svg11.dtd"><svg t="1550499390674" class="icon" style="" viewBox="0 0 1024 1024" version="1.1" xmlns="http://www.w3.org/2000/svg" p-id="8156" xmlns:xlink="http://www.w3.org/1999/xlink" width="24" height="24"><defs><style type="text/css"></style></defs><path d="M434.048 64v160h156.544V64H434.048z m110.08 416h267.776a96 96 0 0 1 96 96v160H960a64 64 0 0 1 64 64V960a64 64 0 0 1-64 64h-156.608a64 64 0 0 1-64-64v-160a64 64 0 0 1 64-64h40.512V576a32 32 0 0 0-32-32H544.128v192h46.464a64 64 0 0 1 64 64V960a64 64 0 0 1-64 64H434.048a64 64 0 0 1-64-64v-160a64 64 0 0 1 64-64h46.08v-192H212.48a32 32 0 0 0-32 32v160h40.064a64 64 0 0 1 64 64V960a64 64 0 0 1-64 64H64a64 64 0 0 1-64-64v-160a64 64 0 0 1 64-64h52.48V576a96 96 0 0 1 96-96h267.648v-192h-46.08a64 64 0 0 1-64-64V64a64 64 0 0 1 64-64h156.544a64 64 0 0 1 64 64v160a64 64 0 0 1-64 64h-46.464v192z m-110.08 320V960h156.544v-160H434.048z m369.28 0V960H960v-160h-156.608zM64 800V960h156.608v-160H64z" p-id="8157" fill="#ffffff"></path></svg>