<?xml version="1.0" standalone="no"?><!DOCTYPE svg PUBLIC "-//W3C//DTD SVG 1.1//EN" "http://www.w3.org/Graphics/SVG/1.1/DTD/svg11.dtd"><svg t="1550499337977" class="icon" style="" viewBox="0 0 1024 1024" version="1.1" xmlns="http://www.w3.org/2000/svg" p-id="7911" xmlns:xlink="http://www.w3.org/1999/xlink" width="24" height="24"><defs><style type="text/css"></style></defs><path d="M857.1 396H166.9c-56.5 0-102.4-45.9-102.4-102.4V175c0-56.5 45.9-102.4 102.4-102.4h690.2c56.5 0 102.4 45.9 102.4 102.4v119.1C959 350.6 913.2 396 857.1 396zM166.9 119c-31 0-56.1 25-56.1 56.1v118.6c0 31 25 56.1 56.1 56.1h690.2c30.6 0 55.6-25 56.1-56.1V175c0-31-25-56.1-56.1-56.1H166.9z m0 0" fill="#ffffff" p-id="7912"></path><path d="M662.1 236.6c0 34.3 27.8 62.1 62.1 62.1s62.1-27.8 62.1-62.1-27.8-62.1-62.1-62.1-62.1 27.8-62.1 62.1z m0 0M857.1 674.4H166.9c-56.5 0-102.4-45.9-102.4-102.4V453.9c0-56.5 45.9-102.4 102.4-102.4h690.2c56.5 0 102.4 45.9 102.4 102.4V573c-0.5 56-46.3 101.4-102.4 101.4zM166.9 397.8c-31 0-56.1 25-56.1 56.1V572c0 31 25 56.1 56.1 56.1h690.2c30.6 0 55.6-25 56.1-55.6V453.9c0-31-25-56.1-56.1-56.1H166.9z m0 0" fill="#ffffff" p-id="7913"></path><path d="M662.1 515.5c0 34.3 27.8 62.1 62.1 62.1s62.1-27.8 62.1-62.1-27.8-62.1-62.1-62.1-62.1 27.8-62.1 62.1z m0 0M857.1 951.4H166.9c-56.5 0-102.4-45.9-102.4-102.4V730.9c0-56.5 45.9-102.4 102.4-102.4h690.2c56.5 0 102.4 45.9 102.4 102.4V850c-0.5 56-46.3 101.4-102.4 101.4zM166.9 674.8c-31 0-56.1 25-56.1 56.1V849c0 31 25 56.1 56.1 56.1h690.2c30.6 0 55.6-25 56.1-55.6V730.9c0-31-25-56.1-56.1-56.1H166.9z m0 0" fill="#ffffff" p-id="7914"></path><path d="M662.1 792.5c0 34.3 27.8 62.1 62.1 62.1s62.1-27.8 62.1-62.1-27.8-62.1-62.1-62.1-62.1 27.8-62.1 62.1z m0 0" fill="#ffffff" p-id="7915"></path></svg>