<?xml version="1.0" standalone="no"?><!DOCTYPE svg PUBLIC "-//W3C//DTD SVG 1.1//EN" "http://www.w3.org/Graphics/SVG/1.1/DTD/svg11.dtd"><svg t="1550499255920" class="icon" style="" viewBox="0 0 1024 1024" version="1.1" xmlns="http://www.w3.org/2000/svg" p-id="6606" xmlns:xlink="http://www.w3.org/1999/xlink" width="24" height="24"><defs><style type="text/css"></style></defs><path d="M457.386667 74.666667c184.32-76.373333 399.36 120.32 355.413333 310.613333-12.8 66.133333-62.72 115.2-99.413333 168.96 172.373333 78.08 259.84 255.573333 228.266666 441.173333-108.373333-1.706667-92.586667-118.613333-124.586666-191.573333-71.68-171.946667-315.733333-224.426667-457.813334-107.52-95.146667 68.693333-114.346667 189.866667-136.533333 296.96-143.36 6.826667-89.6-149.333333-55.04-231.68 37.973333-96 125.44-153.173333 208.64-206.506667-159.146667-135.68-118.613333-410.026667 81.066667-480.426666m29.013333 114.773333c-96.853333 29.44-133.546667 165.546667-66.986667 241.493333 61.013333 89.173333 207.36 82.773333 260.693334-11.093333 93.866667-116.906667-61.866667-295.253333-193.706667-230.4z" fill="#ffffff" p-id="6607"></path></svg>