<?xml version="1.0" standalone="no"?><!DOCTYPE svg PUBLIC "-//W3C//DTD SVG 1.1//EN" "http://www.w3.org/Graphics/SVG/1.1/DTD/svg11.dtd"><svg t="1550489904639" class="icon" style="" viewBox="0 0 1024 1024" version="1.1" xmlns="http://www.w3.org/2000/svg" p-id="1115" xmlns:xlink="http://www.w3.org/1999/xlink" width="32" height="32"><defs><style type="text/css"></style></defs><path d="M361.472 152.064c111.616 0 202.752 87.552 202.752 196.608 0 108.544-90.624 196.608-202.752 196.608-111.616 0-202.752-87.552-202.752-196.608 1.024-109.056 91.136-196.608 202.752-196.608zM721.92 871.936H12.8v-33.792C12.8 686.08 209.92 563.2 367.104 563.2c156.16 0 354.304 122.88 354.304 274.944v33.792zM874.496 678.4c-10.24 10.24-27.648 10.24-37.888 0-5.12-5.12-7.68-11.776-7.68-18.432 0-6.656 3.072-13.312 7.68-18.432l88.064-87.04h-256c-14.848 0-26.624-11.776-26.624-26.624s11.776-26.624 26.624-26.624h256l-87.04-87.04c-10.24-10.24-10.24-27.136 0-37.376s27.648-10.24 37.888 0l133.12 132.096c10.24 10.24 10.24 27.136 0 37.376L874.496 678.4z" fill="#ffffff" p-id="1116"></path></svg>