<?xml version="1.0" standalone="no"?><!DOCTYPE svg PUBLIC "-//W3C//DTD SVG 1.1//EN" "http://www.w3.org/Graphics/SVG/1.1/DTD/svg11.dtd"><svg t="1550113631698" class="icon" style="" viewBox="0 0 1024 1024" version="1.1" xmlns="http://www.w3.org/2000/svg" p-id="3011" xmlns:xlink="http://www.w3.org/1999/xlink" width="200" height="200"><defs><style type="text/css"></style></defs><path d="M511.704018 512.296265m-511.730668 0a511.730668 511.730668 0 1 0 1023.461336 0 511.730668 511.730668 0 1 0-1023.461336 0Z" fill="#2190EC" p-id="3012"></path><path d="M740.501493 340.166228H270.490341a33.935823 33.935823 0 0 0-33.881956 33.90889V678.716465a33.935823 33.935823 0 0 0 33.881956 33.90889h470.011152c18.691636 0 33.98969-15.163388 33.98969-33.90889V374.155918a34.097422 34.097422 0 0 0-33.98969-33.98969z m7.406628 26.583062v319.400736H263.164513V366.74929h484.743608z" fill="#FFFFFF" p-id="3013"></path><path d="M262.922114 388.726775l221.471647 197.770437a30.892372 30.892372 0 0 0 40.426722 0l221.417781-197.851236a15.298054 15.298054 0 0 0 1.400526-21.465755 15.082588 15.082588 0 0 0-21.358023-1.427459l-221.25618 197.770436c-0.134666 0.0808-0.565597 0.0808-0.67333 0l-221.471647-197.71657a15.163388 15.163388 0 1 0-25.047869 12.443135 14.920989 14.920989 0 0 0 5.090373 10.477012z" fill="#FFFFFF" p-id="3014"></path></svg>