<?xml version="1.0" standalone="no"?><!DOCTYPE svg PUBLIC "-//W3C//DTD SVG 1.1//EN" "http://www.w3.org/Graphics/SVG/1.1/DTD/svg11.dtd"><svg t="1550750074893" class="icon" style="" viewBox="0 0 1024 1024" version="1.1" xmlns="http://www.w3.org/2000/svg" p-id="3269" xmlns:xlink="http://www.w3.org/1999/xlink" width="32" height="32"><defs><style type="text/css"></style></defs><path d="M544 384c-38.4 0-70.4 12.8-96 32V384H384v64h32c-19.2 25.6-32 57.6-32 96 0 12.8 0 19.2 6.4 32H384v64h32c32 38.4 76.8 64 128 64 12.8 0 19.2 0 32-6.4v6.4h64v-32c38.4-32 64-76.8 64-128C704 454.4 633.6 384 544 384z" fill="#ffffff" p-id="3270"></path><path d="M864 544m-96 0a96 96 0 1 0 192 0 96 96 0 1 0-192 0Z" fill="#ffffff" p-id="3271"></path><path d="M736 864m-96 0a96 96 0 1 0 192 0 96 96 0 1 0-192 0Z" fill="#ffffff" p-id="3272"></path><path d="M704 192m-64 0a64 64 0 1 0 128 0 64 64 0 1 0-128 0Z" fill="#ffffff" p-id="3273"></path><path d="M313.6 256c6.4-12.8 6.4-19.2 6.4-32C320 172.8 275.2 128 224 128S128 172.8 128 224 172.8 320 224 320c12.8 0 19.2 0 32-6.4V320h64l-6.4-64zM320 320h64v64H320zM640 256h64v64h-64zM576 320h64v64H576zM704 512v64h64V512zM640 704h64v64h-64zM320 640h64v64H320zM256 710.4c-12.8-6.4-19.2-6.4-32-6.4-51.2 0-96 44.8-96 96S172.8 896 224 896 320 851.2 320 800c0-12.8 0-19.2-6.4-32H320v-64l-64 6.4z" fill="#ffffff" p-id="3274"></path></svg>